<?xml version="1.0" encoding="UTF-8"?>
<svg id="Vrstva_1" xmlns="http://www.w3.org/2000/svg" version="1.1" viewBox="0 0 100 100">
  <!-- Generator: Adobe Illustrator 29.6.0, SVG Export Plug-In . SVG Version: 2.1.1 Build 207)  -->
  <defs>
    <style>
      .st0 {
        fill: #2d2d2d;
      }
    </style>
  </defs>
  <path class="st0" d="M31,18c-7.2,0-13,5.8-13,13v39c0,7.2,5.8,13,13,13h39c7.2,0,13-5.8,13-13V31c0-7.2-5.8-13-13-13H31ZM31,20h39c6.1,0,11,4.9,11,11v39c0,6.1-4.9,11-11,11H31c-6.1,0-11-4.9-11-11V31c0-6.1,4.9-11,11-11ZM33.8,23c-6,0-10.8,4.9-10.8,10.8v33.3c0,6,4.9,10.8,10.8,10.8h33.3c6,0,10.8-4.9,10.8-10.8v-18.6c0-.3-.2-.5-.5-.5s-.4.2-.4.5v18.7c0,5.4-4.4,9.8-9.8,9.8h-33.4c-5.4,0-9.8-4.4-9.8-9.8v-33.4c0-5.4,4.4-9.8,9.8-9.8h33.7c.3,0,.5-.2.5-.5s-.2-.5-.5-.5h-33.7ZM33.6,36c-1,0-1.9.3-2.7.9-.1,0-.2.1-.3.2-1,.8-1.6,2.1-1.6,3.5v20.8c0,1.4.6,2.6,1.6,3.5.1.1.2.2.3.2.8.5,1.7.9,2.7.9h33.8c1.3,0,2.4-.5,3.3-1.4l.3-.3c.7-.8,1.1-1.8,1.1-2.9v-20.8c0-1.1-.4-2.1-1.1-2.9,0-.1-.1-.2-.2-.3-.8-.9-2-1.4-3.3-1.4,0,0-33.9,0-33.9,0ZM77.5,36.6c-.3,0-.5.2-.5.5v2c0,.3.2.5.5.5s.5-.2.5-.5v-2c0-.3-.2-.5-.5-.5ZM33.6,37h33.8c.9,0,1.7.3,2.3.9l-11.3,12.9-.1.1-2.4,2.7c-2.8,3.2-7.8,3.2-10.6-.1l-2.1-2.6-.1-.1h0l-11.3-13.3c.5-.3,1.1-.5,1.8-.5ZM31,38.1l11,13.1-11,12.7c-.6-.6-1-1.5-1-2.5v-20.8c0-1,.4-1.9,1-2.5ZM70.4,38.6c.4.6.6,1.2.6,2v20.8c0,.7-.2,1.4-.6,2l-11-12.2,11-12.6ZM77.5,40.6c-.3,0-.5.2-.5.5v4c0,.3.2.5.5.5s.5-.2.5-.5v-4c0-.3-.2-.5-.5-.5ZM58.7,51.9l11,12.2c-.6.5-1.4.9-2.3.9h-33.8c-.6,0-1.2-.2-1.8-.5l10.9-12.5,1.8,2.2c3.1,3.7,8.9,3.8,12.1.1l2.1-2.4Z"/>
</svg>