<?xml version="1.0" encoding="UTF-8"?>
<svg id="Vrstva_1" xmlns="http://www.w3.org/2000/svg" version="1.1" viewBox="0 0 100 100">
  <!-- Generator: Adobe Illustrator 29.6.0, SVG Export Plug-In . SVG Version: 2.1.1 Build 207)  -->
  <defs>
    <style>
      .st0 {
        fill: #2d2d2d;
      }
    </style>
  </defs>
  <path class="st0" d="M31,18c-7.2,0-13,5.8-13,13v39c0,7.2,5.8,13,13,13h39c7.2,0,13-5.8,13-13V31c0-7.2-5.8-13-13-13H31ZM31,20h39c6.1,0,11,4.9,11,11v39c0,6.1-4.9,11-11,11H31c-6.1,0-11-4.9-11-11V31c0-6.1,4.9-11,11-11ZM33.8,23c-6,0-10.8,4.9-10.8,10.8v33.3c0,6,4.9,10.8,10.8,10.8h33.3c6,0,10.8-4.9,10.8-10.8v-18.6c0-.3-.2-.5-.5-.5s-.4.2-.4.5v18.7c0,5.4-4.4,9.8-9.8,9.8h-33.4c-5.4,0-9.8-4.4-9.8-9.8v-33.4c0-5.4,4.4-9.8,9.8-9.8h33.7c.3,0,.5-.2.5-.5s-.2-.5-.5-.5h-33.7ZM36.5,30c-.3,0-.6.1-.8.2-1.3.5-2.7,1.1-3.9,2.3-1.2,1.2-1.8,3.1-1.8,5.8,0,3.1,1.6,6.5,4,10,2.4,3.5,5.5,6.9,8.7,10.1h0c3.2,3.2,6.7,6.3,10.2,8.6s7,4,10,4c2.6,0,4.4-.7,5.6-1.8s1.9-2.5,2.4-3.8c.4-1.1,0-2.3-.9-2.9-1.5-1-4.6-2.9-6.7-4.1-1.4-.8-3.1-.8-4.4,0l-.6.3c-1.2.7-2.7.6-3.8-.3-1.8-1.4-4.3-3.6-6.2-5.5s-3.9-4.3-5.2-6c-.9-1.1-1-2.6-.2-3.8l.3-.5h0c.8-1.4.8-3.2-.1-4.6-1.3-2.1-3.4-5.3-4.3-6.8-.3-.5-.8-.8-1.3-1-.4-.1-.7-.2-1-.2ZM36.6,31c.2,0,.3,0,.5.1.3.1.6.3.8.6,1,1.5,3,4.6,4.3,6.7.7,1.1.7,2.4.1,3.5l-.3.5c-1,1.6-.9,3.6.2,5,1.4,1.7,3.4,4.2,5.3,6.1,2,2,4.5,4.1,6.3,5.6,1.4,1.2,3.4,1.3,4.9.3l.6-.3c1-.6,2.3-.6,3.4,0,2.1,1.2,5.2,3.1,6.7,4.1.6.4.8,1.1.6,1.7h0c-.5,1.3-1.1,2.5-2.1,3.5s-2.6,1.6-5,1.6c-2.7,0-6-1.5-9.5-3.8s-7-5.4-10.1-8.5h0c-3.1-3.1-6.2-6.6-8.5-9.9s-3.8-6.7-3.8-9.5c0-2.6.7-4.1,1.6-5.1s2.2-1.6,3.5-2.1c.1-.1.3-.1.5-.1ZM77.5,36.6c-.3,0-.5.2-.5.5v2c0,.3.2.5.5.5s.5-.2.5-.5v-2c0-.3-.2-.5-.5-.5ZM77.5,40.6c-.3,0-.5.2-.5.5v4c0,.3.2.5.5.5s.5-.2.5-.5v-4c0-.3-.2-.5-.5-.5Z"/>
</svg>