<?xml version="1.0" encoding="UTF-8"?>
<svg id="Vrstva_1" xmlns="http://www.w3.org/2000/svg" version="1.1" viewBox="0 0 100 100">
  <!-- Generator: Adobe Illustrator 29.6.0, SVG Export Plug-In . SVG Version: 2.1.1 Build 207)  -->
  <defs>
    <style>
      .st0 {
        fill: #828282;
      }
    </style>
  </defs>
  <path class="st0" d="M31,17c-7.7,0-14,6.3-14,14v38c0,7.7,6.3,14,14,14h38c7.7,0,14-6.3,14-14V31c0-7.7-6.3-14-14-14H31ZM31,19h38c6.6,0,12,5.4,12,12v38c0,6.6-5.4,12-12,12H31c-6.6,0-12-5.4-12-12V31c0-6.6,5.4-12,12-12ZM40,26c-7.7,0-14,6.3-14,14v20c0,7.7,6.3,14,14,14h20c7.7,0,14-6.3,14-14v-20c0-7.7-6.3-14-14-14h-20ZM40,27h20c7.2,0,13,5.8,13,13v20c0,7.2-5.8,13-13,13h-20c-7.2,0-13-5.8-13-13v-20c0-7.2,5.8-13,13-13ZM40,30c-5.5,0-10,4.5-10,10v20c0,5.5,4.5,10,10,10h20c5.5,0,10-4.5,10-10v-20c0-5.5-4.5-10-10-10h-20ZM40,31h20c5,0,9,4,9,9v20c0,5-4,9-9,9h-20c-5,0-9-4-9-9v-20c0-5,4-9,9-9ZM62.5,34c-1.1,0-2,.4-2.6,1.1s-.9,1.5-.9,2.4.3,1.7.9,2.4,1.5,1.1,2.6,1.1,2-.4,2.6-1.1.9-1.5.9-2.4-.3-1.7-.9-2.4-1.5-1.1-2.6-1.1ZM62.5,35c.9,0,1.5.3,1.9.8s.6,1.1.6,1.7-.2,1.3-.6,1.7-1,.8-1.9.8-1.5-.3-1.9-.8-.6-1.1-.6-1.7.2-1.3.6-1.7,1-.8,1.9-.8ZM50,38c-6.6,0-12,5.4-12,12s5.4,12,12,12,12-5.4,12-12-5.4-12-12-12ZM50,39c6.1,0,11,4.9,11,11s-4.9,11-11,11-11-4.9-11-11,4.9-11,11-11ZM50,42c-4.4,0-8,3.6-8,8s3.6,8,8,8,8-3.6,8-8-3.6-8-8-8ZM50,43c3.9,0,7,3.1,7,7s-3.1,7-7,7-7-3.1-7-7,3.1-7,7-7Z"/>
</svg>